<svg width="1155" height="952" viewBox="0 0 1155 952" fill="none" xmlns="http://www.w3.org/2000/svg">
<path d="M249.725 175.042L323.501 104.723H379.817L402.023 267.989L402.086 268.453L402.313 268.863L475.313 400.739L478.647 406.761L479.954 400.003L510.305 243.148L570.257 184.947L661.599 500.106L663.573 506.916L666.307 500.374L726.307 356.793L726.448 356.454L726.487 356.089L741.129 215.856L838.287 400.691L840.9 405.661L842.845 400.394L920.773 189.438L949.048 331.942L949.447 333.956H951.5H1012H1014.02L1014.44 331.981L1045.97 185.299L1103.72 243.66L1107.01 246.984L1107.95 242.403L1152.5 24.6875V949.5H2.5V6.70638L73.11 88.2529L73.6387 88.8634L74.4247 89.0493L140.425 104.656L141.63 104.941L142.587 104.155L187.743 67.0632L245.801 174.422L247.357 177.299L249.725 175.042Z" fill="white" stroke="white" stroke-width="5"/>
</svg>
